<svg xmlns="http://www.w3.org/2000/svg" viewBox="0 0 42.43 43.25"><defs><style>.cls-1{fill:#cc1e68;}</style></defs><title>ocio_dot_m</title><g id="Layer_2" data-name="Layer 2"><g id="Layer_1-2" data-name="Layer 1"><path class="cls-1" d="M30,18l11.14-3.71,0-.14a21.4,21.4,0,0,0-2-4.12l-.08-.12-10,6.45A9.15,9.15,0,0,1,30,18Z"/><path class="cls-1" d="M42.31,19.35l0-.14L30.75,20.68a9.11,9.11,0,0,1,0,1.92l11.55,1.47,0-.14a21.72,21.72,0,0,0,0-4.57Z"/><path class="cls-1" d="M29.07,27l9.88,6.55.08-.12a21.42,21.42,0,0,0,2-4.1l0-.14L30,25.35A9.15,9.15,0,0,1,29.07,27Z"/><circle class="cls-1" cx="21.63" cy="21.63" r="5"/><path class="cls-1" d="M30.47,32a13.6,13.6,0,1,1,.12-20.55l5.92-5.46a21.63,21.63,0,1,0-.11,31.47Z"/></g></g></svg>