<svg xmlns="http://www.w3.org/2000/svg" viewBox="0 0 145.88 43.66"><defs><style>.cls-1{fill:#231f20;}</style></defs><title>ocio_b</title><g id="Layer_2" data-name="Layer 2"><g id="Layer_1-2" data-name="Layer 1"><path class="cls-1" d="M75.67,18.35l11.16-3.71,0-.14a21.42,21.42,0,0,0-2-4.13l-.08-.12-10,6.46A9.16,9.16,0,0,1,75.67,18.35Z"/><path class="cls-1" d="M88,19.73l0-.14L76.38,21.06a9.12,9.12,0,0,1,0,1.92l11.56,1.47,0-.14a21.74,21.74,0,0,0,0-4.58Z"/><path class="cls-1" d="M74.7,27.37l9.89,6.56.08-.12a21.44,21.44,0,0,0,2-4.1l0-.14L75.64,25.73A9.16,9.16,0,0,1,74.7,27.37Z"/><circle class="cls-1" cx="67.25" cy="22.01" r="5"/><path class="cls-1" d="M76.1,32.35a13.61,13.61,0,1,1,.12-20.57l5.93-5.46A21.65,21.65,0,1,0,82,37.81Z"/><path class="cls-1" d="M21.64,0A21.64,21.64,0,1,0,43.28,21.66,21.64,21.64,0,0,0,21.64,0Zm0,35.25A13.61,13.61,0,1,1,35.25,21.66,13.61,13.61,0,0,1,21.64,35.26Z"/><path class="cls-1" d="M124.24,0a21.64,21.64,0,1,0,21.64,21.64A21.64,21.64,0,0,0,124.24,0Zm0,35.25a13.61,13.61,0,1,1,13.61-13.61A13.61,13.61,0,0,1,124.24,35.25Z"/><rect class="cls-1" x="91.71" y="3.85" width="8.01" height="35.57"/></g></g></svg>