<svg xmlns="http://www.w3.org/2000/svg" role="img" viewBox="-10.62 -11.62 1020.24 739.24"><title>OpenColorIO logo</title><style>svg {enable-background:new 0 0 1000 716.65}</style><style>.st0{fill:#050606}</style><path d="M485.84 399.02c-88.64 0-160.5-71.83-160.5-160.44S397.2 78.14 485.84 78.14c42.22 0 80.63 16.31 109.28 42.95l47.98-51.26C601.9 31.45 546.62 7.97 485.85 7.97c-127.42 0-230.71 103.26-230.71 230.63s103.29 230.63 230.71 230.63c60.77 0 116.06-23.49 157.26-61.88l-47.99-51.27c-28.65 26.64-67.06 42.94-109.28 42.94z" class="st0"/><path d="M543.32 261.53c.64-1.6 1.21-3.22 1.72-4.88l186.57 98.93 5.02-10.03-190.54-92.79c.53-2.24.93-4.53 1.2-6.86l210.04 37.41 1.7-11.08-211.41-30.2c.06-1.14.1-2.28.1-3.43 0-1.15-.03-2.3-.1-3.43l211.41-30.2-1.7-11.08-210.04 37.41c-.27-2.33-.68-4.62-1.2-6.86l190.54-92.79-5.02-10.03-186.57 98.93c-.51-1.66-1.08-3.29-1.72-4.88L714.88 77.18l5.02-4.05-25.08-28.41-8.92 9.48-145.72 154.78c-10.5-19.2-30.89-32.23-54.32-32.23-34.17 0-61.87 27.69-61.87 61.84s27.7 61.84 61.87 61.84c23.43 0 43.83-13.03 54.32-32.23l145.73 154.78 8.92 9.48 25.08-28.41-5.02-4.05-171.57-138.47z" class="st0"/><path d="M132.75 602.6c0 8.92-1.38 17.49-4.13 25.68-2.76 8.2-6.79 15.42-12.1 21.65-5.31 6.23-11.78 11.22-19.39 14.96-7.61 3.74-16.27 5.61-25.98 5.61s-18.37-1.87-25.98-5.61c-7.61-3.74-14.07-8.73-19.39-14.96-5.31-6.23-9.35-13.45-12.1-21.65-2.76-8.2-4.13-16.76-4.13-25.68 0-8.92 1.38-17.48 4.13-25.68 2.76-8.2 6.79-15.42 12.1-21.65 5.31-6.23 11.78-11.22 19.39-14.96 7.61-3.74 16.27-5.61 25.98-5.61s18.37 1.87 25.98 5.61c7.61 3.74 14.07 8.73 19.39 14.96 5.31 6.23 9.35 13.45 12.1 21.65s4.13 16.76 4.13 25.68zm-8.66 0c0-8.27-1.21-16.04-3.64-23.32-2.43-7.28-5.94-13.68-10.53-19.19-4.59-5.51-10.17-9.87-16.73-13.09-6.56-3.21-13.91-4.82-22.04-4.82-8.14 0-15.48 1.61-22.04 4.82-6.56 3.22-12.14 7.58-16.73 13.09s-8.1 11.91-10.53 19.19c-2.43 7.28-3.64 15.06-3.64 23.32 0 8.27 1.21 16.04 3.64 23.32 2.43 7.28 5.93 13.68 10.53 19.19 4.59 5.51 10.17 9.88 16.73 13.09 6.56 3.22 13.91 4.82 22.04 4.82 8.13 0 15.48-1.61 22.04-4.82 6.56-3.21 12.14-7.58 16.73-13.09s8.1-11.91 10.53-19.19c2.42-7.28 3.64-15.06 3.64-23.32zm101.16 18.3c0 7.48-1.12 14.27-3.35 20.37-2.23 6.1-5.41 11.29-9.55 15.55-4.13 4.27-9.09 7.55-14.86 9.84-5.78 2.29-12.14 3.44-19.09 3.44-4.2 0-7.87-.2-11.02-.59a45.52 45.52 0 0 1-9.25-2.16v41.33h-8.66V574.85h8.07v14.17c3.41-4.46 7.77-8.27 13.09-11.42 5.31-3.15 11.64-4.72 18.99-4.72 5.51 0 10.46 1.21 14.86 3.64 4.39 2.43 8.13 5.81 11.22 10.14 3.08 4.33 5.44 9.42 7.08 15.25 1.65 5.84 2.47 12.17 2.47 18.99zm-8.66 0c0-6.03-.69-11.54-2.07-16.53-1.38-4.98-3.32-9.25-5.81-12.79-2.49-3.54-5.54-6.3-9.15-8.27-3.61-1.97-7.65-2.95-12.1-2.95-3.15 0-6.13.49-8.95 1.48-2.82.98-5.48 2.26-7.97 3.84a38.986 38.986 0 0 0-6.79 5.41 79.74 79.74 0 0 0-5.61 6.2v62.19c2.88 1.18 5.97 2 9.25 2.46 3.28.46 6.82.69 10.63.69 4.99 0 9.81-.82 14.47-2.46 4.66-1.64 8.76-4.13 12.3-7.48 3.54-3.35 6.4-7.64 8.56-12.89 2.16-5.25 3.24-11.55 3.24-18.9zm28.93 1.58c0 12.67 2.95 22.53 8.86 29.58 5.9 7.05 14.76 10.58 26.57 10.58 4.85 0 9.41-.56 13.68-1.67 4.26-1.11 8.49-2.66 12.69-4.62l1.97 6.9c-3.94 2.02-8.46 3.68-13.58 4.95-5.12 1.28-10.43 1.92-15.94 1.92-6.96 0-13.12-1.25-18.5-3.74-5.38-2.49-9.87-5.94-13.48-10.33-3.61-4.39-6.33-9.58-8.17-15.55-1.84-5.97-2.76-12.43-2.76-19.39 0-7.09.92-13.58 2.76-19.49 1.84-5.9 4.46-10.99 7.87-15.25s7.54-7.58 12.4-9.94c4.85-2.36 10.36-3.54 16.53-3.54 10.63 0 18.96 3.41 25 10.23 6.03 6.82 9.05 16.21 9.05 28.15 0 1.84-.1 3.67-.29 5.51-.2 1.84-.43 3.74-.69 5.71h-63.97zm56.29-7.48c.79-10.96-1.08-19.57-5.61-25.84-4.53-6.26-11.32-9.39-20.37-9.39-5.12 0-9.55 1.08-13.29 3.23-3.74 2.15-6.86 4.93-9.35 8.32-2.49 3.39-4.4 7.18-5.71 11.35-1.31 4.18-1.97 8.28-1.97 12.33h56.3zm35.03-25.98c3.8-4.98 8.43-8.92 13.88-11.81 5.44-2.88 11.51-4.33 18.21-4.33 5.64 0 10.5 1.21 14.56 3.64 4.07 2.43 7.41 5.71 10.04 9.84 2.62 4.13 4.56 8.96 5.81 14.47s1.87 11.35 1.87 17.52v49.8h-8.66v-48.42c0-5.38-.43-10.46-1.28-15.25-.85-4.79-2.26-8.96-4.23-12.5-1.97-3.54-4.63-6.36-7.97-8.46-3.35-2.1-7.45-3.15-12.3-3.15-5.78 0-11.19 1.61-16.24 4.82-5.05 3.22-9.42 7.06-13.09 11.51v71.45h-8.66v-93.29h8.07v14.16zM487.6 534.7c5.9 0 12.07.56 18.5 1.67 6.43 1.12 11.81 2.59 16.14 4.43l-2.95 13.97c-4.46-1.57-9.25-2.85-14.37-3.84-5.12-.98-10.17-1.48-15.15-1.48-16.4 0-29.2 4.59-38.38 13.78-9.19 9.19-13.78 22.31-13.78 39.36 0 17.06 4.59 30.18 13.78 39.36 9.18 9.19 21.98 13.78 38.38 13.78 4.98 0 10.04-.49 15.15-1.48 5.12-.98 9.91-2.26 14.37-3.84l2.95 13.97c-4.33 1.84-9.71 3.32-16.14 4.43-6.43 1.11-12.6 1.67-18.5 1.67-10.76 0-20.37-1.71-28.83-5.12-8.46-3.41-15.58-8.13-21.35-14.17-5.78-6.03-10.2-13.19-13.29-21.45-3.08-8.27-4.63-17.32-4.63-27.16s1.54-18.89 4.63-27.16c3.08-8.27 7.51-15.42 13.29-21.45 5.77-6.03 12.89-10.76 21.35-14.17 8.46-3.4 18.07-5.1 28.83-5.1zm129.31 86.2c0 6.69-1.02 12.99-3.05 18.89-2.04 5.9-5.02 11.12-8.95 15.65-3.94 4.53-8.76 8.1-14.47 10.73-5.71 2.62-12.17 3.94-19.39 3.94-7.35 0-13.85-1.31-19.49-3.94-5.64-2.62-10.43-6.2-14.37-10.73-3.94-4.53-6.92-9.74-8.96-15.65-2.04-5.9-3.05-12.2-3.05-18.89s1.01-12.99 3.05-18.89c2.03-5.9 5.02-11.12 8.96-15.65 3.94-4.53 8.72-8.1 14.37-10.73 5.64-2.62 12.14-3.94 19.49-3.94 7.21 0 13.68 1.31 19.39 3.94 5.71 2.63 10.53 6.2 14.47 10.73 3.94 4.53 6.92 9.74 8.95 15.65 2.03 5.9 3.05 12.2 3.05 18.89zm-17.71 0c0-4.85-.59-9.45-1.77-13.78-1.18-4.33-2.92-8.1-5.22-11.32-2.3-3.21-5.22-5.74-8.76-7.58-3.54-1.84-7.68-2.76-12.4-2.76-4.72 0-8.86.92-12.4 2.76-3.54 1.84-6.46 4.36-8.76 7.58-2.3 3.22-4.03 6.99-5.22 11.32-1.18 4.33-1.77 8.92-1.77 13.78 0 4.99.59 9.61 1.77 13.88 1.18 4.27 2.92 8 5.22 11.22 2.29 3.22 5.22 5.74 8.76 7.58 3.54 1.84 7.68 2.76 12.4 2.76 4.72 0 8.86-.92 12.4-2.76 3.54-1.84 6.46-4.36 8.76-7.58 2.29-3.21 4.03-6.95 5.22-11.22 1.18-4.26 1.77-8.89 1.77-13.88zm47.23 22.66c0 3.8.75 6.72 2.26 8.75 1.51 2.03 4.1 3.04 7.77 3.04 2.88 0 5.84-.39 8.86-1.18l.79 13.35c-4.33 1.46-9.12 2.2-14.37 2.2-8.27 0-14.17-2.43-17.71-7.28-3.54-4.85-5.31-10.83-5.31-17.91V529.19h17.71v114.37zm111.59-22.66c0 6.69-1.02 12.99-3.05 18.89-2.04 5.9-5.02 11.12-8.95 15.65s-8.76 8.1-14.47 10.73c-5.71 2.62-12.17 3.94-19.39 3.94-7.35 0-13.84-1.31-19.48-3.94-5.64-2.62-10.43-6.2-14.37-10.73-3.94-4.53-6.92-9.74-8.95-15.65-2.04-5.9-3.05-12.2-3.05-18.89s1.01-12.99 3.05-18.89c2.03-5.9 5.02-11.12 8.95-15.65 3.94-4.53 8.72-8.1 14.37-10.73 5.64-2.62 12.13-3.94 19.48-3.94 7.21 0 13.68 1.31 19.39 3.94 5.71 2.63 10.53 6.2 14.47 10.73 3.94 4.53 6.92 9.74 8.95 15.65 2.04 5.9 3.05 12.2 3.05 18.89zm-17.71 0c0-4.85-.59-9.45-1.77-13.78s-2.92-8.1-5.22-11.32c-2.3-3.21-5.22-5.74-8.76-7.58-3.54-1.84-7.68-2.76-12.4-2.76-4.72 0-8.86.92-12.4 2.76-3.54 1.84-6.46 4.36-8.76 7.58-2.3 3.22-4.03 6.99-5.22 11.32-1.18 4.33-1.77 8.92-1.77 13.78 0 4.99.59 9.61 1.77 13.88 1.18 4.27 2.92 8 5.22 11.22 2.29 3.22 5.22 5.74 8.76 7.58 3.54 1.84 7.68 2.76 12.4 2.76 4.72 0 8.86-.92 12.4-2.76 3.54-1.84 6.46-4.36 8.76-7.58 2.29-3.21 4.03-6.95 5.22-11.22 1.18-4.26 1.77-8.89 1.77-13.88zm83.65-32.67h-4.53c-6.96 0-12.96 1.31-18.01 3.94-5.05 2.63-9.35 6.89-12.89 12.79v63.18h-17.71v-94.47h16.93v18.11c2.76-6.3 6.4-11.09 10.92-14.37 4.53-3.28 10.53-4.92 18.01-4.92 2.88 0 5.31.33 7.28.98v14.76zm15.94 79.91V537.06h8.66v131.08h-8.66zm150.56-65.54c0 8.92-1.38 17.49-4.13 25.68-2.76 8.2-6.79 15.42-12.1 21.65-5.31 6.23-11.78 11.22-19.39 14.96-7.61 3.74-16.27 5.61-25.98 5.61s-18.37-1.87-25.98-5.61c-7.61-3.74-14.07-8.73-19.39-14.96-5.31-6.23-9.35-13.45-12.1-21.65-2.76-8.2-4.13-16.76-4.13-25.68 0-8.92 1.38-17.48 4.13-25.68 2.76-8.2 6.79-15.42 12.1-21.65 5.31-6.23 11.77-11.22 19.39-14.96 7.61-3.74 16.27-5.61 25.98-5.61s18.37 1.87 25.98 5.61c7.61 3.74 14.07 8.73 19.39 14.96 5.31 6.23 9.35 13.45 12.1 21.65s4.13 16.76 4.13 25.68zm-8.66 0c0-8.27-1.22-16.04-3.64-23.32-2.43-7.28-5.94-13.68-10.53-19.19-4.59-5.51-10.17-9.87-16.73-13.09-6.56-3.21-13.91-4.82-22.04-4.82-8.14 0-15.48 1.61-22.04 4.82-6.56 3.22-12.14 7.58-16.73 13.09s-8.1 11.91-10.53 19.19c-2.43 7.28-3.64 15.06-3.64 23.32 0 8.27 1.21 16.04 3.64 23.32 2.43 7.28 5.94 13.68 10.53 19.19 4.59 5.51 10.17 9.88 16.73 13.09 6.56 3.22 13.91 4.82 22.04 4.82 8.13 0 15.48-1.61 22.04-4.82 6.56-3.21 12.13-7.58 16.73-13.09 4.59-5.51 8.1-11.91 10.53-19.19 2.43-7.28 3.64-15.06 3.64-23.32z" class="st0"/></svg>